<svg width="40" height="40" viewBox="9 15 21 10" fill="none" xmlns="http://www.w3.org/2000/svg">
<circle cx="20" cy="20" r="20" fill="black"/>
<path d="M27 12H13C12.2044 12 11.4413 12.3161 10.8787 12.8787C10.3161 13.4413 10 14.2044 10 15V25C10 25.7956 10.3161 26.5587 10.8787 27.1213C11.4413 27.6839 12.2044 28 13 28H27C27.7956 28 28.5587 27.6839 29.1213 27.1213C29.6839 26.5587 30 25.7956 30 25V15C30 14.2044 29.6839 13.4413 29.1213 12.8787C28.5587 12.3161 27.7956 12 27 12V12ZM26.33 14L20 18.75L13.67 14H26.33ZM27 26H13C12.7348 26 12.4804 25.8946 12.2929 25.7071C12.1054 25.5196 12 25.2652 12 25V15.25L19.4 20.8C19.5731 20.9298 19.7836 21 20 21C20.2164 21 20.4269 20.9298 20.6 20.8L28 15.25V25C28 25.2652 27.8946 25.5196 27.7071 25.7071C27.5196 25.8946 27.2652 26 27 26Z" fill="white"/>
</svg>
