<svg xmlns="http://www.w3.org/2000/svg" viewBox="0 0 195.22 17.13"><defs><style>.cls-1{fill:#19a8b4;}</style></defs><title>Asset 3</title><g id="Layer_2" data-name="Layer 2"><g id="Layer_1-2" data-name="Layer 1"><path class="cls-1" d="M7.11.23V2.58H4.78V16.9H2.32V2.58H0V.23Z"/><path class="cls-1" d="M21.83,4.69v7.75c0,3.06-1.27,4.69-3.84,4.69s-3.87-1.63-3.87-4.69V4.69C14.12,1.63,15.39,0,18,0S21.83,1.63,21.83,4.69Zm-2.44,0c0-1.84-.44-2.41-1.4-2.41s-1.41.57-1.41,2.41v7.75c0,1.86.42,2.46,1.41,2.46s1.4-.6,1.4-2.46Z"/><path class="cls-1" d="M33.67.23c2.51,0,3.91,1.66,3.91,4.74v7.19c0,3.06-1.4,4.74-3.91,4.74H29.88V.23Zm0,2.3H32.34V14.65h1.33c1,0,1.47-.58,1.47-2.53V5.06C35.14,3.13,34.68,2.53,33.67,2.53Z"/><path class="cls-1" d="M49.43.23c2.5,0,3.9,1.66,3.9,4.74v7.19c0,3.06-1.4,4.74-3.9,4.74h-3.8V.23Zm0,2.3H48.09V14.65h1.34c1,0,1.47-.58,1.47-2.53V5.06C50.9,3.13,50.44,2.53,49.43,2.53Z"/><path class="cls-1" d="M63.8.23v14.3h3.66V16.9H61.39V.23Z"/><path class="cls-1" d="M81.23.23V2.58h-3.7V7.17h2.92v2.1H77.53v5.31h3.91V16.9H75.07V.23Z"/><path class="cls-1" d="M92.5,9.84h-.89V16.9H89.15V.23h3.7c2.37,0,3.47,1.52,3.47,4.67,0,2.48-.57,3.75-1.68,4.25l2.21,7.75H94.34Zm-.89-2.07h1c.9,0,1.24-.55,1.24-2.64s-.36-2.6-1.24-2.6h-1Z"/><path class="cls-1" d="M111.66,5.45c0,3.4-1.22,5.17-3.47,5.17h-1.38V16.9h-2.46V.23h3.75C110.4.23,111.66,2,111.66,5.45Zm-4.85,3.08h1.24c.81,0,1.17-.71,1.17-3.06s-.36-3-1.17-3h-1.24Z"/><path class="cls-1" d="M122.08.23V16.9h-2.46V.23Z"/><path class="cls-1" d="M133,.23v14.3h3.65V16.9h-6.07V.23Z"/><path class="cls-1" d="M146.69.23v14.3h3.66V16.9h-6.07V.23Z"/><path class="cls-1" d="M159.57,16.9h-2.44l3-16.67h3l3,16.67h-2.51L163,13h-2.85Zm.85-5.91h2.28l-1.1-8.07h0Z"/><path class="cls-1" d="M176.91,9.84H176V16.9h-2.46V.23h3.7c2.37,0,3.47,1.52,3.47,4.67,0,2.48-.57,3.75-1.68,4.25l2.21,7.75h-2.51ZM176,7.77h1c.9,0,1.24-.55,1.24-2.64s-.37-2.6-1.24-2.6h-1Z"/><path class="cls-1" d="M195.11,3.75l-1.87.55c-.25-1.54-.69-2.09-1.45-2.09s-1.21.6-1.21,1.79c0,3.22,4.64,3.86,4.64,8.6,0,2.92-1.36,4.53-3.56,4.53-1.84,0-3.32-1.36-3.59-4l2-.51c.23,1.8.78,2.3,1.52,2.3s1.26-.57,1.26-1.86c0-3.77-4.71-4.23-4.71-8.87,0-2.37,1.24-4.19,3.42-4.19S194.67,1.45,195.11,3.75Z"/></g></g></svg>